<?xml version="1.0" encoding="UTF-8" standalone="no"?>
<svg
   class="main-svg"
   width="100"
   height="100"
   viewBox="0 0 100 100"
   version="1.1"
   id="svg268"
   sodipodi:docname="RheometerGeometry.svg"
   inkscape:version="1.3.2 (091e20e, 2023-11-25, custom)"
   inkscape:export-filename="RheometerGeometry.png"
   inkscape:export-xdpi="600"
   inkscape:export-ydpi="600"
   xmlns:inkscape="http://www.inkscape.org/namespaces/inkscape"
   xmlns:sodipodi="http://sodipodi.sourceforge.net/DTD/sodipodi-0.dtd"
   xmlns="http://www.w3.org/2000/svg"
   xmlns:svg="http://www.w3.org/2000/svg">
  <sodipodi:namedview
     id="namedview270"
     pagecolor="#ffffff"
     bordercolor="#666666"
     borderopacity="1.0"
     inkscape:showpageshadow="2"
     inkscape:pageopacity="0"
     inkscape:pagecheckerboard="0"
     inkscape:deskcolor="#d1d1d1"
     showgrid="false"
     inkscape:zoom="1.947069"
     inkscape:cx="64.712652"
     inkscape:cy="95.784997"
     inkscape:window-width="1920"
     inkscape:window-height="1009"
     inkscape:window-x="-8"
     inkscape:window-y="-8"
     inkscape:window-maximized="1"
     inkscape:current-layer="svg268" />
  <defs
     id="defs-87e385">
    <g
       class="clips"
       id="g16">
      <clipPath
         id="clip87e385xyplot"
         class="plotclip">
        <rect
           width="190"
           height="190"
           id="rect4"
           x="0"
           y="0" />
      </clipPath>
      <clipPath
         class="axesclip"
         id="clip87e385x">
        <rect
           x="80"
           y="0"
           width="190"
           height="280"
           id="rect7" />
      </clipPath>
      <clipPath
         class="axesclip"
         id="clip87e385y">
        <rect
           x="0"
           y="10"
           width="280"
           height="190"
           id="rect10" />
      </clipPath>
      <clipPath
         class="axesclip"
         id="clip87e385xy">
        <rect
           x="80"
           y="10"
           width="190"
           height="190"
           id="rect13" />
      </clipPath>
    </g>
    <g
       class="gradients"
       id="g18" />
    <g
       class="patterns"
       id="g20" />
  </defs>
  <g
     class="bglayer"
     id="g23" />
  <g
     class="layer-below"
     id="g29">
    <g
       class="imagelayer"
       id="g25" />
    <g
       class="shapelayer"
       id="g27" />
  </g>
  <g
     class="cartesianlayer"
     id="g225"
     transform="translate(326.84825,1.4526589)">
    <g
       class="subplot xy"
       id="g223">
      <g
         class="layer-subplot"
         id="g35">
        <g
           class="shapelayer"
           id="g31" />
        <g
           class="imagelayer"
           id="g33" />
      </g>
      <g
         class="minor-gridlayer"
         id="g41">
        <g
           class="x"
           id="g37" />
        <g
           class="y"
           id="g39" />
      </g>
      <g
         class="gridlayer"
         id="g47">
        <g
           class="x"
           id="g43" />
        <g
           class="y"
           id="g45" />
      </g>
      <g
         class="zerolinelayer"
         id="g49" />
      <path
         class="xlines-below"
         id="path51"
         d="" />
      <path
         class="ylines-below"
         id="path53"
         d="" />
      <g
         class="overlines-below"
         id="g55" />
      <g
         class="xaxislayer-below"
         id="g57" />
      <g
         class="yaxislayer-below"
         id="g59" />
      <g
         class="overaxes-below"
         id="g61" />
      <g
         class="plot"
         transform="translate(80,10)"
         clip-path="url(#clip87e385xyplot)"
         id="g79">
        <g
           class="scatterlayer mlayer"
           id="g77">
          <g
             class="trace scatter trace4fc1ed"
             style="opacity:1;stroke-miterlimit:2"
             id="g75">
            <g
               class="fills"
               id="g63" />
            <g
               class="errorbars"
               id="g65" />
            <g
               class="lines"
               id="g69">
              <path
                 class="js-line"
                 d="m 2.09,9.5 q 0.66,11.9 1.04,17.12 c 0.32,4.4 0.68,8.36 1.05,12.15 c 0.33,3.34 0.67,6.44 1.04,9.42 c 0.33,2.7 0.68,5.24 1.04,7.69 c 0.34,2.26 0.69,4.42 1.05,6.51 c 0.34,1.95 0.68,3.82 1.04,5.63 c 0.34,1.71 0.69,3.35 1.05,4.96 c 0.34,1.52 0.68,3 1.04,4.44 c 0.34,1.38 0.68,2.71 1.04,4.02 c 0.34,1.25 0.69,2.47 1.05,3.66 c 0.34,1.15 0.69,2.27 1.04,3.37 c 0.34,1.06 0.7,2.09 1.05,3.11 c 0.34,0.99 0.69,1.95 1.04,2.9 c 0.34,0.92 0.69,1.82 1.04,2.71 c 0.34,0.86 0.7,1.71 1.05,2.54 c 0.34,0.81 0.69,1.61 1.04,2.4 c 0.34,0.77 0.7,1.52 1.05,2.26 c 0.34,0.73 0.69,1.44 1.04,2.15 c 0.34,0.69 0.69,1.37 1.04,2.04 c 0.35,0.66 0.7,1.3 1.05,1.94 c 0.34,0.63 0.69,1.24 1.04,1.85 c 0.34,0.6 0.69,1.19 1.04,1.77 c 0.35,0.57 0.7,1.14 1.05,1.7 c 0.35,0.55 0.69,1.09 1.04,1.63 c 0.35,0.53 0.7,1.05 1.05,1.57 c 0.35,0.51 0.69,1.01 1.04,1.5 c 0.34,0.49 0.69,0.97 1.04,1.45 c 0.35,0.47 0.7,0.94 1.05,1.4 c 0.35,0.46 0.69,0.91 1.04,1.36 c 0.35,0.44 0.7,0.87 1.05,1.3 c 0.35,0.43 0.69,0.85 1.04,1.27 c 0.34,0.41 0.69,0.82 1.04,1.22 c 0.35,0.4 0.7,0.8 1.05,1.19 c 0.35,0.39 0.69,0.77 1.04,1.15 c 0.35,0.38 0.7,0.75 1.05,1.12 c 0.35,0.36 0.69,0.72 1.04,1.08 c 0.35,0.36 0.69,0.71 1.04,1.06 c 0.35,0.35 0.7,0.69 1.05,1.03 c 0.35,0.34 0.69,0.67 1.04,1 c 0.35,0.33 0.7,0.65 1.05,0.97 c 0.35,0.32 0.69,0.64 1.04,0.95 c 0.35,0.31 0.69,0.62 1.04,0.92 c 0.35,0.3 0.7,0.6 1.05,0.9 c 0.35,0.3 0.69,0.59 1.04,0.88 c 0.35,0.29 0.7,0.58 1.05,0.86 c 0.35,0.28 0.69,0.56 1.04,0.84 c 0.35,0.27 0.69,0.54 1.04,0.81 c 0.35,0.27 0.7,0.53 1.05,0.8 c 0.35,0.26 0.69,0.53 1.04,0.79 c 0.35,0.26 0.7,0.51 1.05,0.76 c 0.35,0.25 0.69,0.5 1.04,0.75 c 0.35,0.25 0.69,0.49 1.04,0.73 c 0.35,0.24 0.7,0.47 1.05,0.71 c 0.35,0.23 0.69,0.47 1.04,0.7 c 0.35,0.23 0.7,0.46 1.05,0.69 c 0.35,0.23 0.69,0.45 1.04,0.67 c 0.35,0.22 0.69,0.44 1.04,0.66 c 0.35,0.22 0.7,0.44 1.05,0.65 c 0.35,0.21 0.69,0.42 1.04,0.63 c 0.35,0.21 0.7,0.42 1.05,0.62 c 0.35,0.2 0.69,0.4 1.04,0.6 c 0.35,0.2 0.69,0.4 1.04,0.6 c 0.35,0.2 0.7,0.39 1.05,0.58 c 0.35,0.19 0.69,0.39 1.04,0.58 c 0.35,0.19 0.7,0.37 1.05,0.56 c 0.35,0.18 0.69,0.37 1.04,0.55 c 0.35,0.18 0.69,0.36 1.04,0.54 c 0.35,0.18 0.7,0.35 1.05,0.53 c 0.35,0.18 0.69,0.36 1.04,0.53 c 0.35,0.17 0.69,0.34 1.04,0.51 c 0.35,0.17 0.7,0.33 1.05,0.5 c 0.35,0.16 0.69,0.33 1.04,0.49 c 0.35,0.16 0.7,0.33 1.05,0.49 c 0.35,0.16 0.69,0.32 1.04,0.48 c 0.35,0.16 0.69,0.31 1.04,0.46 c 0.35,0.15 0.7,0.31 1.05,0.46 c 0.35,0.15 0.69,0.3 1.04,0.45 c 0.35,0.15 0.7,0.3 1.05,0.45 c 0.35,0.15 0.69,0.29 1.04,0.43 c 0.35,0.14 0.69,0.29 1.04,0.43 c 0.35,0.14 0.7,0.28 1.05,0.42 c 0.35,0.14 0.69,0.27 1.04,0.41 c 0.35,0.14 0.7,0.27 1.05,0.41 c 0.35,0.13 0.69,0.27 1.04,0.4 c 0.35,0.13 0.69,0.26 1.04,0.39 c 0.35,0.13 0.7,0.26 1.05,0.39 c 0.35,0.13 0.69,0.25 1.04,0.37 c 0.35,0.13 0.7,0.26 1.05,0.38 c 0.35,0.12 0.69,0.24 1.04,0.36 c 0.35,0.12 0.69,0.24 1.04,0.36 c 0.35,0.12 0.7,0.23 1.05,0.35 c 0.35,0.12 0.69,0.24 1.04,0.35 c 0.35,0.12 0.7,0.23 1.05,0.34 c 0.35,0.11 0.69,0.23 1.04,0.34 c 0.35,0.11 0.69,0.21 1.04,0.32 c 0.35,0.11 0.7,0.22 1.05,0.33 c 0.35,0.11 0.69,0.22 1.04,0.32 c 0.35,0.11 0.7,0.21 1.05,0.31 c 0.35,0.1 0.69,0.2 1.04,0.3 c 0.35,0.1 0.69,0.21 1.04,0.31 c 0.35,0.1 0.7,0.19 1.05,0.29 c 0.35,0.1 0.69,0.19 1.04,0.29 c 0.35,0.1 0.7,0.19 1.05,0.29 c 0.35,0.09 0.69,0.19 1.04,0.28 c 0.35,0.09 0.69,0.18 1.04,0.27 c 0.35,0.09 0.7,0.18 1.05,0.27 c 0.35,0.09 0.69,0.18 1.04,0.27 c 0.35,0.09 0.7,0.17 1.05,0.26 c 0.35,0.09 0.69,0.17 1.04,0.26 c 0.35,0.08 0.69,0.17 1.04,0.25 c 0.35,0.08 0.7,0.16 1.05,0.24 c 0.35,0.08 0.69,0.17 1.04,0.25 c 0.35,0.08 0.69,0.15 1.04,0.23 c 0.35,0.08 0.7,0.16 1.05,0.24 c 0.35,0.08 0.69,0.15 1.04,0.22 c 0.35,0.08 0.7,0.15 1.05,0.23 c 0.35,0.07 0.69,0.15 1.04,0.22 c 0.35,0.07 0.69,0.14 1.04,0.21 c 0.35,0.07 0.7,0.14 1.05,0.21 c 0.35,0.07 0.69,0.14 1.04,0.21 c 0.35,0.07 0.7,0.13 1.05,0.2 c 0.35,0.07 0.69,0.13 1.04,0.2 c 0.35,0.06 0.69,0.13 1.04,0.19 c 0.35,0.06 0.7,0.13 1.05,0.19 c 0.35,0.06 0.69,0.13 1.04,0.19 c 0.35,0.06 0.7,0.12 1.05,0.18 c 0.35,0.06 0.69,0.12 1.04,0.18 c 0.35,0.06 0.69,0.11 1.04,0.17 c 0.35,0.06 0.7,0.11 1.05,0.17 c 0.35,0.06 0.69,0.12 1.04,0.17 c 0.35,0.06 0.7,0.11 1.05,0.16 c 0.35,0.05 0.69,0.11 1.04,0.16 c 0.35,0.05 0.69,0.11 1.04,0.16 c 0.35,0.05 0.7,0.1 1.05,0.15 c 0.35,0.05 0.69,0.09 1.04,0.14 c 0.35,0.05 0.7,0.1 1.05,0.15 c 0.35,0.05 0.69,0.09 1.04,0.14 c 0.35,0.04 0.69,0.09 1.04,0.13 c 0.35,0.05 0.7,0.1 1.05,0.14 c 0.35,0.04 0.69,0.08 1.04,0.12 c 0.35,0.04 0.7,0.09 1.05,0.13 c 0.35,0.04 0.69,0.08 1.04,0.12 c 0.35,0.04 0.69,0.08 1.04,0.12 c 0.35,0.04 0.7,0.07 1.05,0.11 c 0.35,0.04 0.69,0.08 1.04,0.12 c 0.35,0.04 0.7,0.06 1.05,0.1 c 0.35,0.03 0.69,0.07 1.04,0.11 c 0.35,0.03 0.69,0.07 1.04,0.1 c 0.35,0.03 0.7,0.07 1.05,0.1 c 0.35,0.03 0.69,0.06 1.04,0.09 c 0.35,0.03 0.7,0.06 1.05,0.09 c 0.35,0.03 0.69,0.06 1.04,0.09 c 0.35,0.03 0.69,0.05 1.04,0.08 c 0.35,0.03 0.7,0.05 1.05,0.08 c 0.35,0.03 0.69,0.06 1.04,0.08 c 0.35,0.03 0.7,0.05 1.05,0.07 c 0.35,0.02 0.69,0.05 1.04,0.07 c 0.35,0.02 0.69,0.05 1.04,0.07 c 0.35,0.02 0.7,0.04 1.05,0.06 c 0.35,0.02 0.69,0.04 1.04,0.06 c 0.35,0.02 0.69,0.04 1.04,0.06 c 0.35,0.02 0.7,0.03 1.05,0.05 c 0.35,0.02 0.69,0.03 1.04,0.05 c 0.35,0.02 0.7,0.03 1.05,0.05 c 0.35,0.01 0.69,0.03 1.04,0.04 c 0.35,0.01 0.69,0.03 1.04,0.04 c 0.35,0.01 0.7,0.03 1.05,0.04 c 0.35,0.01 0.69,0.03 1.04,0.04 c 0.35,0.01 0.7,0.02 1.05,0.03 c 0.35,0.01 0.69,0.01 1.04,0.02 c 0.35,0.01 0.69,0.02 1.04,0.03 c 0.35,0.01 0.7,0.01 1.05,0.02 c 0.35,0.01 0.69,0.02 1.04,0.02 c 0.35,0.01 0.7,0.01 1.05,0.01 c 0.35,0 0.69,0.01 1.04,0.01 c 0.35,0 0.69,0.01 1.04,0.01 c 0.35,0 0.7,0.01 1.05,0.01 q 0.35,0 1.04,0"
                 style="opacity:1;fill:none;stroke:#000000;stroke-width:3;stroke-dasharray:none;stroke-opacity:1"
                 id="path67" />
            </g>
            <g
               class="points"
               id="g71" />
            <g
               class="text"
               id="g73" />
          </g>
        </g>
      </g>
      <g
         class="overplot"
         id="g81" />
      <path
         class="xlines-above crisp"
         d="m 79,200.5 h 192 m -192,-191 h 192"
         style="fill:none;stroke:#000000;stroke-width:1px;stroke-opacity:1"
         id="path83" />
      <path
         class="ylines-above crisp"
         d="m 79.5,10 v 190 m 191,-190 v 190"
         style="fill:none;stroke:#000000;stroke-width:1px;stroke-opacity:1"
         id="path85" />
      <g
         class="overlines-above"
         id="g87" />
      <g
         class="xaxislayer-above"
         id="g117">
        <path
           class="xtick ticks crisp"
           d="m 0,200 v -5 m 0,-185 v 5"
           transform="translate(126.98)"
           style="stroke:#000000;stroke-width:1px;stroke-opacity:1"
           id="path89" />
        <path
           class="xtick ticks crisp"
           d="m 0,200 v -5 m 0,-185 v 5"
           transform="translate(173.96)"
           style="stroke:#000000;stroke-width:1px;stroke-opacity:1"
           id="path91" />
        <path
           class="xtick ticks crisp"
           d="m 0,200 v -5 m 0,-185 v 5"
           transform="translate(220.93)"
           style="stroke:#000000;stroke-width:1px;stroke-opacity:1"
           id="path93" />
        <path
           class="xtick ticks crisp"
           d="m 0,200 v -5 m 0,-185 v 5"
           transform="translate(267.91)"
           style="stroke:#000000;stroke-width:1px;stroke-opacity:1"
           id="path95" />
        <g
           class="xtick"
           id="g99">
          <text
             text-anchor="middle"
             x="0"
             y="217.8"
             transform="translate(80)"
             style="font-size:14px;font-family:'Segoe UI';white-space:pre;opacity:1;fill:#000000;fill-opacity:1"
             id="text97">0</text>
        </g>
        <g
           class="xtick"
           id="g103">
          <text
             text-anchor="middle"
             x="0"
             y="217.8"
             style="font-size:14px;font-family:'Segoe UI';white-space:pre;opacity:1;fill:#000000;fill-opacity:1"
             transform="translate(126.98)"
             id="text101">45</text>
        </g>
        <g
           class="xtick"
           id="g107">
          <text
             text-anchor="middle"
             x="0"
             y="217.8"
             style="font-size:14px;font-family:'Segoe UI';white-space:pre;opacity:1;fill:#000000;fill-opacity:1"
             transform="translate(173.96)"
             id="text105">90</text>
        </g>
        <g
           class="xtick"
           id="g111">
          <text
             text-anchor="middle"
             x="0"
             y="217.8"
             style="font-size:14px;font-family:'Segoe UI';white-space:pre;opacity:1;fill:#000000;fill-opacity:1"
             transform="translate(220.93)"
             id="text109">135</text>
        </g>
        <g
           class="xtick"
           id="g115">
          <text
             text-anchor="middle"
             x="0"
             y="217.8"
             style="font-size:14px;font-family:'Segoe UI';white-space:pre;opacity:1;fill:#000000;fill-opacity:1"
             transform="translate(267.91)"
             id="text113">180</text>
        </g>
      </g>
      <g
         class="yaxislayer-above"
         id="g219">
        <path
           class="ytick ticks crisp"
           d="m 80,0 h 2 m 188,0 h -2"
           transform="translate(0,195.21)"
           style="stroke:#000000;stroke-width:1px;stroke-opacity:1"
           id="path119" />
        <path
           class="ytick ticks crisp"
           d="m 80,0 h 2 m 188,0 h -2"
           transform="translate(0,186.65)"
           style="stroke:#000000;stroke-width:1px;stroke-opacity:1"
           id="path121" />
        <path
           class="ytick ticks crisp"
           d="m 80,0 h 2 m 188,0 h -2"
           transform="translate(0,180.57)"
           style="stroke:#000000;stroke-width:1px;stroke-opacity:1"
           id="path123" />
        <path
           class="ytick ticks crisp"
           d="m 80,0 h 2 m 188,0 h -2"
           transform="translate(0,175.86)"
           style="stroke:#000000;stroke-width:1px;stroke-opacity:1"
           id="path125" />
        <path
           class="ytick ticks crisp"
           d="m 80,0 h 2 m 188,0 h -2"
           transform="translate(0,172.01)"
           style="stroke:#000000;stroke-width:1px;stroke-opacity:1"
           id="path127" />
        <path
           class="ytick ticks crisp"
           d="m 80,0 h 2 m 188,0 h -2"
           transform="translate(0,168.76)"
           style="stroke:#000000;stroke-width:1px;stroke-opacity:1"
           id="path129" />
        <path
           class="ytick ticks crisp"
           d="m 80,0 h 2 m 188,0 h -2"
           transform="translate(0,165.94)"
           style="stroke:#000000;stroke-width:1px;stroke-opacity:1"
           id="path131" />
        <path
           class="ytick ticks crisp"
           d="m 80,0 h 2 m 188,0 h -2"
           transform="translate(0,163.45)"
           style="stroke:#000000;stroke-width:1px;stroke-opacity:1"
           id="path133" />
        <path
           class="ytick ticks crisp"
           d="m 80,0 h 2 m 188,0 h -2"
           transform="translate(0,146.59)"
           style="stroke:#000000;stroke-width:1px;stroke-opacity:1"
           id="path135" />
        <path
           class="ytick ticks crisp"
           d="m 80,0 h 2 m 188,0 h -2"
           transform="translate(0,138.03)"
           style="stroke:#000000;stroke-width:1px;stroke-opacity:1"
           id="path137" />
        <path
           class="ytick ticks crisp"
           d="m 80,0 h 2 m 188,0 h -2"
           transform="translate(0,131.95)"
           style="stroke:#000000;stroke-width:1px;stroke-opacity:1"
           id="path139" />
        <path
           class="ytick ticks crisp"
           d="m 80,0 h 2 m 188,0 h -2"
           transform="translate(0,127.24)"
           style="stroke:#000000;stroke-width:1px;stroke-opacity:1"
           id="path141" />
        <path
           class="ytick ticks crisp"
           d="m 80,0 h 2 m 188,0 h -2"
           transform="translate(0,123.39)"
           style="stroke:#000000;stroke-width:1px;stroke-opacity:1"
           id="path143" />
        <path
           class="ytick ticks crisp"
           d="m 80,0 h 2 m 188,0 h -2"
           transform="translate(0,120.13)"
           style="stroke:#000000;stroke-width:1px;stroke-opacity:1"
           id="path145" />
        <path
           class="ytick ticks crisp"
           d="m 80,0 h 2 m 188,0 h -2"
           transform="translate(0,117.31)"
           style="stroke:#000000;stroke-width:1px;stroke-opacity:1"
           id="path147" />
        <path
           class="ytick ticks crisp"
           d="m 80,0 h 2 m 188,0 h -2"
           transform="translate(0,114.83)"
           style="stroke:#000000;stroke-width:1px;stroke-opacity:1"
           id="path149" />
        <path
           class="ytick ticks crisp"
           d="m 80,0 h 2 m 188,0 h -2"
           transform="translate(0,97.96)"
           style="stroke:#000000;stroke-width:1px;stroke-opacity:1"
           id="path151" />
        <path
           class="ytick ticks crisp"
           d="m 80,0 h 2 m 188,0 h -2"
           transform="translate(0,89.4)"
           style="stroke:#000000;stroke-width:1px;stroke-opacity:1"
           id="path153" />
        <path
           class="ytick ticks crisp"
           d="m 80,0 h 2 m 188,0 h -2"
           transform="translate(0,83.33)"
           style="stroke:#000000;stroke-width:1px;stroke-opacity:1"
           id="path155" />
        <path
           class="ytick ticks crisp"
           d="m 80,0 h 2 m 188,0 h -2"
           transform="translate(0,78.61)"
           style="stroke:#000000;stroke-width:1px;stroke-opacity:1"
           id="path157" />
        <path
           class="ytick ticks crisp"
           d="m 80,0 h 2 m 188,0 h -2"
           transform="translate(0,74.76)"
           style="stroke:#000000;stroke-width:1px;stroke-opacity:1"
           id="path159" />
        <path
           class="ytick ticks crisp"
           d="m 80,0 h 2 m 188,0 h -2"
           transform="translate(0,71.51)"
           style="stroke:#000000;stroke-width:1px;stroke-opacity:1"
           id="path161" />
        <path
           class="ytick ticks crisp"
           d="m 80,0 h 2 m 188,0 h -2"
           transform="translate(0,68.69)"
           style="stroke:#000000;stroke-width:1px;stroke-opacity:1"
           id="path163" />
        <path
           class="ytick ticks crisp"
           d="m 80,0 h 2 m 188,0 h -2"
           transform="translate(0,66.2)"
           style="stroke:#000000;stroke-width:1px;stroke-opacity:1"
           id="path165" />
        <path
           class="ytick ticks crisp"
           d="m 80,0 h 2 m 188,0 h -2"
           transform="translate(0,49.34)"
           style="stroke:#000000;stroke-width:1px;stroke-opacity:1"
           id="path167" />
        <path
           class="ytick ticks crisp"
           d="m 80,0 h 2 m 188,0 h -2"
           transform="translate(0,40.78)"
           style="stroke:#000000;stroke-width:1px;stroke-opacity:1"
           id="path169" />
        <path
           class="ytick ticks crisp"
           d="m 80,0 h 2 m 188,0 h -2"
           transform="translate(0,34.7)"
           style="stroke:#000000;stroke-width:1px;stroke-opacity:1"
           id="path171" />
        <path
           class="ytick ticks crisp"
           d="m 80,0 h 2 m 188,0 h -2"
           transform="translate(0,29.99)"
           style="stroke:#000000;stroke-width:1px;stroke-opacity:1"
           id="path173" />
        <path
           class="ytick ticks crisp"
           d="m 80,0 h 2 m 188,0 h -2"
           transform="translate(0,26.14)"
           style="stroke:#000000;stroke-width:1px;stroke-opacity:1"
           id="path175" />
        <path
           class="ytick ticks crisp"
           d="m 80,0 h 2 m 188,0 h -2"
           transform="translate(0,22.88)"
           style="stroke:#000000;stroke-width:1px;stroke-opacity:1"
           id="path177" />
        <path
           class="ytick ticks crisp"
           d="m 80,0 h 2 m 188,0 h -2"
           transform="translate(0,20.06)"
           style="stroke:#000000;stroke-width:1px;stroke-opacity:1"
           id="path179" />
        <path
           class="ytick ticks crisp"
           d="m 80,0 h 2 m 188,0 h -2"
           transform="translate(0,17.58)"
           style="stroke:#000000;stroke-width:1px;stroke-opacity:1"
           id="path181" />
        <path
           class="ytick ticks crisp"
           d="m 80,0 h 5 m 185,0 h -5"
           transform="translate(0,161.23)"
           style="stroke:#000000;stroke-width:1px;stroke-opacity:1"
           id="path183" />
        <path
           class="ytick ticks crisp"
           d="m 80,0 h 5 m 185,0 h -5"
           transform="translate(0,112.6)"
           style="stroke:#000000;stroke-width:1px;stroke-opacity:1"
           id="path185" />
        <path
           class="ytick ticks crisp"
           d="m 80,0 h 5 m 185,0 h -5"
           transform="translate(0,63.98)"
           style="stroke:#000000;stroke-width:1px;stroke-opacity:1"
           id="path187" />
        <path
           class="ytick ticks crisp"
           d="m 80,0 h 5 m 185,0 h -5"
           transform="translate(0,15.35)"
           style="stroke:#000000;stroke-width:1px;stroke-opacity:1"
           id="path189" />
        <g
           class="ytick"
           id="g193">
          <text
             text-anchor="end"
             x="76.199997"
             y="6.125"
             transform="translate(0,161.23)"
             style="font-size:17.5px;font-family:'Segoe UI';white-space:pre;opacity:1;fill:#000000;fill-opacity:1"
             id="text191">10</text>
        </g>
        <g
           class="ytick"
           id="g201">
          <text
             text-anchor="end"
             x="76.199997"
             y="6.125"
             style="font-size:17.5px;font-family:'Segoe UI';white-space:pre;opacity:1;fill:#000000;fill-opacity:1"
             transform="translate(0,112.6)"
             id="text199">10​<tspan
   style="font-size:70%"
   dy="-0.60000002em"
   id="tspan195">2</tspan><tspan
   dy="0.41999999em"
   id="tspan197">​</tspan></text>
        </g>
        <g
           class="ytick"
           id="g209">
          <text
             text-anchor="end"
             x="76.199997"
             y="6.125"
             style="font-size:17.5px;font-family:'Segoe UI';white-space:pre;opacity:1;fill:#000000;fill-opacity:1"
             transform="translate(0,63.98)"
             id="text207">10​<tspan
   style="font-size:70%"
   dy="-0.60000002em"
   id="tspan203">3</tspan><tspan
   dy="0.41999999em"
   id="tspan205">​</tspan></text>
        </g>
        <g
           class="ytick"
           id="g217">
          <text
             text-anchor="end"
             x="76.199997"
             y="6.125"
             style="font-size:17.5px;font-family:'Segoe UI';white-space:pre;opacity:1;fill:#000000;fill-opacity:1"
             transform="translate(0,15.35)"
             id="text215">10​<tspan
   style="font-size:70%"
   dy="-0.60000002em"
   id="tspan211">4</tspan><tspan
   dy="0.41999999em"
   id="tspan213">​</tspan></text>
        </g>
      </g>
      <g
         class="overaxes-above"
         id="g221" />
    </g>
  </g>
  <g
     class="polarlayer"
     id="g227" />
  <g
     class="smithlayer"
     id="g229" />
  <g
     class="ternarylayer"
     id="g231" />
  <g
     class="geolayer"
     id="g233" />
  <g
     class="funnelarealayer"
     id="g235" />
  <g
     class="pielayer"
     id="g237" />
  <g
     class="iciclelayer"
     id="g239" />
  <g
     class="treemaplayer"
     id="g241" />
  <g
     class="sunburstlayer"
     id="g243" />
  <g
     class="glimages"
     id="g245" />
  <defs
     id="topdefs-87e385">
    <g
       class="clips"
       id="g247" />
  </defs>
  <g
     class="layer-above"
     id="g254">
    <g
       class="imagelayer"
       id="g250" />
    <g
       class="shapelayer"
       id="g252" />
  </g>
  <g
     class="infolayer"
     id="g266"
     transform="translate(326.84825,1.4526589)">
    <g
       class="g-gtitle"
       id="g256" />
    <g
       class="g-xtitle"
       transform="translate(0,6.7816406)"
       id="g260">
      <text
         class="xtitle"
         x="175"
         y="232.83661"
         text-anchor="middle"
         style="font-weight:normal;font-size:17px;font-family:'Segoe UI';white-space:pre;opacity:1;fill:#000000"
         id="text258">θ</text>
    </g>
    <g
       class="g-ytitle"
       id="g264">
      <text
         class="ytitle"
         transform="rotate(-90,39.317773,105)"
         x="39.317772"
         y="105"
         text-anchor="middle"
         style="font-weight:normal;font-size:17px;font-family:'Segoe UI';white-space:pre;opacity:1;fill:#000000"
         id="text262">Force [N]</text>
    </g>
  </g>
  <text
     id="text1168"
     xml:space="preserve"
     transform="scale(0.9999551,1.0000449)"
     x="65.900406"
     y="24.297508"
     style="font-size:6.7382px;stroke-width:0.561516"><tspan
       style="font-style:italic;font-variant:normal;font-weight:normal;font-size:25.942px;font-family:'Segoe UI';writing-mode:lr-tb;fill:#000000;fill-opacity:1;fill-rule:nonzero;stroke:none;stroke-width:0.561516"
       x="65.900406"
       y="24.297508"
       id="tspan1168">ω</tspan><tspan
       style="font-variant:normal;font-weight:normal;font-size:25.942px;font-family:'Segoe UI Historic';writing-mode:lr-tb;fill:#000000;fill-opacity:1;fill-rule:nonzero;stroke:none;stroke-width:0.561516"
       x="217.95068"
       y="26.772942"
       id="tspan1169" /></text>
  <path
     id="path1193"
     d="m 44.722136,28.577033 h 8.68797 v 30.296416 h -8.68797 z"
     style="fill:#c0bfbc;fill-opacity:1;fill-rule:nonzero;stroke:#000000;stroke-width:0.475102;stroke-linecap:butt;stroke-linejoin:round;stroke-miterlimit:3.8;stroke-dasharray:none;stroke-opacity:1"
     inkscape:export-filename="33.png"
     inkscape:export-xdpi="600"
     inkscape:export-ydpi="600" />
  <path
     id="path1194"
     d="m 25.975616,59.064349 h 46.18044 v 10.08944 h -46.18044 z"
     style="fill:#c0bfbc;fill-opacity:1;fill-rule:nonzero;stroke:#000000;stroke-width:0.63215;stroke-linecap:butt;stroke-linejoin:round;stroke-miterlimit:3.8;stroke-dasharray:none;stroke-opacity:1" />
  <path
     id="path1195"
     d="m 7.5367859,79.784526 h 83.0614701 v 5.424 h -83.0614701 z"
     style="fill:#c0bfbc;fill-opacity:1;fill-rule:nonzero;stroke:#000000;stroke-width:0.621525;stroke-linecap:butt;stroke-linejoin:round;stroke-miterlimit:3.8;stroke-dasharray:none;stroke-opacity:1" />
  <path
     id="path1196"
     d="m 28.382156,69.267779 h 41.22979 c 2.81419,0 5.07757,2.26562 5.07757,5.079817 v 0.26951 c 0,2.81419 -2.26338,5.07757 -5.07757,5.07757 h -41.22979 c -2.81419,0 -5.07757,-2.26338 -5.07757,-5.07757 v -0.26951 c 0,-2.814197 2.26338,-5.079817 5.07757,-5.079817 z"
     style="fill:#ff9900;fill-opacity:1;fill-rule:nonzero;stroke:#000000;stroke-width:0.475102;stroke-linecap:butt;stroke-linejoin:round;stroke-miterlimit:3.8;stroke-dasharray:none;stroke-opacity:1" />
  <path
     id="path1197"
     d="m 46.051186,25.468054 c -0.0544,-0.0304 -0.17069,-0.123034 -0.25436,-0.208313 c -0.0831,-0.08531 -0.24985,-0.243137 -0.37058,-0.355427 c -0.11842,-0.109504 -0.33577,-0.311068 -0.48233,-0.44919 c -0.14707,-0.138631 -0.39921,-0.371152 -0.56148,-0.519953 c -0.16228,-0.147067 -0.35094,-0.318358 -0.41888,-0.384061 c -0.0684,-0.06351 -0.26783,-0.24761 -0.44302,-0.409877 l -0.3206,-0.291984 l -0.0173,-0.08977 c -0.0286,-0.160038 0.0415,-0.24987 0.84673,-1.079189 c 0.0809,-0.08531 0.23695,-0.254359 0.34195,-0.377328 c 0.10775,-0.120805 0.28748,-0.315557 0.40147,-0.434038 c 0.11396,-0.118417 0.29197,-0.302632 0.39248,-0.412693 c 0.10107,-0.109505 0.35543,-0.381244 0.56374,-0.607526 l 0.38182,-0.407648 h 0.24536 l 0.14484,0.197075 v 0.548588 c 0,0.300388 0.01,0.552503 0.0173,0.561495 c 0.0242,0.02642 0.4694,-0.02865 0.5396,-0.06573 c 0.0353,-0.01735 0.14484,-0.04823 0.24593,-0.06796 c 0.65582,-0.134174 0.82652,-0.173504 0.88603,-0.202137 c 0.0371,-0.01735 0.10505,-0.03708 0.15105,-0.04823 c 0.0859,-0.01591 0.33577,-0.100591 0.44975,-0.153274 c 0.0376,-0.01592 0.14929,-0.04823 0.25211,-0.07019 c 0.17799,-0.03931 0.22404,-0.0573 0.46098,-0.175748 c 0.0613,-0.03024 0.12908,-0.05666 0.15105,-0.05666 c 0.022,0 0.11396,-0.03931 0.20607,-0.08372 c 0.0926,-0.046 0.18472,-0.08308 0.20438,-0.08308 c 0.0393,0 0.47389,-0.212817 0.53286,-0.263351 c 0.0196,-0.01592 0.0944,-0.04823 0.16676,-0.07242 c 0.11173,-0.03486 0.28523,-0.135926 0.34869,-0.19932 c 0.01,-0.0096 0.11396,-0.06796 0.2347,-0.131946 c 0.11842,-0.06351 0.2347,-0.13131 0.2566,-0.148818 c 0.0898,-0.07688 0.13147,-0.107753 0.2611,-0.184167 c 0.12908,-0.0791 0.37957,-0.270084 0.5525,-0.421114 c 0.12303,-0.109982 0.52893,-0.486816 0.64066,-0.594633 c 0.11619,-0.113961 0.59406,-0.710281 0.59406,-0.743403 c 0,-0.01273 0.0702,-0.125261 0.15391,-0.252114 c 0.0831,-0.127489 0.18193,-0.31387 0.21898,-0.416625 l 0.0662,-0.188672 l -0.0528,-0.180236 c -0.0286,-0.09884 -0.0966,-0.245366 -0.15168,-0.326778 c -0.0544,-0.08085 -0.10059,-0.162283 -0.10059,-0.179679 c 0,-0.01735 -0.0242,-0.05284 -0.0505,-0.07688 c -0.0309,-0.02419 -0.0724,-0.08977 -0.0966,-0.147066 c -0.0242,-0.05666 -0.0875,-0.148818 -0.14038,-0.201581 c -0.0551,-0.05507 -0.13593,-0.153273 -0.17968,-0.217289 c -0.046,-0.06351 -0.19539,-0.225725 -0.33353,-0.359358 c -0.13815,-0.134175 -0.32904,-0.318374 -0.42336,-0.41045 c -0.0944,-0.09216 -0.18416,-0.166771 -0.19933,-0.166771 c -0.018,0 -0.1146,-0.07178 -0.21729,-0.160022 c -0.10553,-0.08977 -0.23696,-0.181924 -0.29423,-0.206069 c -0.0567,-0.02197 -0.10282,-0.05507 -0.10282,-0.06796 c 0,-0.02642 -0.47614,-0.333526 -0.51545,-0.333526 c -0.0111,0 -0.0859,-0.04154 -0.16227,-0.09216 c -0.0791,-0.05045 -0.17126,-0.107276 -0.20831,-0.126853 c -0.0376,-0.02021 -0.13417,-0.07465 -0.2173,-0.123033 c -0.0837,-0.04823 -0.19764,-0.09661 -0.25659,-0.107753 c -0.0595,-0.01273 -0.12526,-0.04377 -0.14707,-0.07019 c -0.022,-0.02578 -0.0528,-0.04775 -0.0702,-0.04775 c -0.0174,0 -0.12303,-0.04664 -0.2347,-0.101068 c -0.1095,-0.05507 -0.21504,-0.101069 -0.2347,-0.101069 c -0.0302,0 -0.37957,-0.129081 -0.57665,-0.215061 c -0.16004,-0.07019 -0.31837,-0.120646 -0.56824,-0.186412 c -0.12908,-0.03263 -0.3178,-0.08531 -0.41887,-0.116189 c -0.10107,-0.03024 -0.25885,-0.07465 -0.35093,-0.100591 c -0.0922,-0.02419 -0.21505,-0.05953 -0.27177,-0.07688 c -0.0573,-0.01735 -0.24593,-0.05045 -0.41662,-0.07242 c -0.1735,-0.02197 -0.37733,-0.06112 -0.45649,-0.08754 c -0.0791,-0.02642 -0.20159,-0.046 -0.27401,-0.046 c -0.0724,0 -0.16677,-0.01591 -0.20831,-0.0331 c -0.0422,-0.01958 -0.21281,-0.04823 -0.37733,-0.06573 c -0.16677,-0.01735 -0.4301,-0.046 -0.58563,-0.06573 c -0.15615,-0.01958 -0.6474,-0.04823 -1.09266,-0.06176 l -0.81137,-0.02419 l -0.0589,-0.06112 l -0.0595,-0.05889 v -3.06462 l 0.0837,-0.07019 l 0.0831,-0.06796 h 0.45201 c 0.24761,0 0.53959,0.01274 0.64684,0.03088 c 0.10775,0.01735 0.37057,0.04154 0.58562,0.05061 c 0.21282,0.01114 0.44976,0.03486 0.5222,0.05284 c 0.0746,0.01958 0.26109,0.04823 0.41887,0.06351 c 0.1555,0.01592 0.35094,0.04377 0.43404,0.06128 c 0.0815,0.01958 0.30038,0.05045 0.48512,0.07242 c 0.18193,0.02197 0.39024,0.06176 0.45817,0.08754 c 0.0702,0.02642 0.17126,0.04663 0.22348,0.04663 c 0.0551,0 0.10775,0.01592 0.11842,0.03263 c 0.0111,0.01735 0.0904,0.04154 0.17799,0.05507 c 0.0853,0.01114 0.17293,0.03486 0.19314,0.05061 c 0.0196,0.01592 0.16227,0.05221 0.31781,0.08085 c 0.15327,0.03088 0.32903,0.07688 0.38574,0.103297 c 0.0595,0.02419 0.12081,0.046 0.13863,0.046 c 0.0173,0 0.0764,0.02196 0.12908,0.05061 c 0.0528,0.02578 0.11842,0.04998 0.14707,0.04998 c 0.0286,0 0.0657,0.01273 0.0831,0.02865 c 0.0174,0.01735 0.12288,0.05507 0.23246,0.08595 c 0.11173,0.0304 0.29197,0.100591 0.4037,0.155503 c 0.11174,0.05284 0.21731,0.09661 0.23471,0.09661 c 0.0174,0 0.10504,0.03708 0.19764,0.08308 c 0.0922,0.046 0.19261,0.08372 0.22348,0.08372 c 0.0309,0 0.0657,0.01591 0.0769,0.03263 c 0.0111,0.01799 0.0898,0.06573 0.17744,0.107753 c 0.0853,0.04154 0.17967,0.09216 0.20831,0.111733 c 0.0264,0.02196 0.10107,0.05889 0.16226,0.08308 c 0.0618,0.02419 0.23246,0.125261 0.37958,0.224038 c 0.14706,0.09661 0.28299,0.177434 0.29814,0.177434 c 0.0331,0 0.0415,0.0064 0.22853,0.160023 c 0.0635,0.05507 0.17743,0.129718 0.24987,0.166755 c 0.0746,0.03995 0.19314,0.131946 0.26502,0.206069 c 0.0724,0.07465 0.14484,0.136402 0.16058,0.136402 c 0.0567,0 0.87705,0.797885 0.97588,0.951732 c 0.0349,0.05284 0.12526,0.175174 0.20158,0.26951 c 0.0746,0.09661 0.1954,0.274572 0.27008,0.396969 c 0.0724,0.125261 0.14882,0.243694 0.169,0.263351 c 0.0196,0.02197 0.0611,0.116189 0.0922,0.212801 c 0.0304,0.09661 0.0944,0.245939 0.14039,0.331282 c 0.046,0.08531 0.0831,0.179679 0.0831,0.210557 c 0,0.02865 0.0197,0.09216 0.0438,0.138153 c 0.0242,0.04823 0.0657,0.212817 0.092,0.368351 l 0.046,0.280732 v 3.910795 l -0.0438,0.295916 c -0.0264,0.164511 -0.068,0.33577 -0.0921,0.386305 c -0.0264,0.04823 -0.046,0.107275 -0.046,0.131309 c 0,0.02419 -0.046,0.134175 -0.10107,0.245923 c -0.0544,0.109504 -0.10043,0.212817 -0.10043,0.227969 c 0,0.03708 -0.0944,0.23919 -0.16004,0.335771 c -0.0309,0.04823 -0.10107,0.166771 -0.15614,0.262778 c -0.0567,0.09661 -0.17517,0.270083 -0.26726,0.38406 c -0.0922,0.116189 -0.19765,0.247626 -0.23471,0.295916 c -0.24818,0.31387 -0.93264,0.950044 -1.25493,1.160601 c -0.0416,0.02865 -0.1224,0.08977 -0.17968,0.138154 c -0.0573,0.04823 -0.1555,0.11396 -0.21954,0.147066 c -0.0657,0.03263 -0.12462,0.06796 -0.13369,0.07863 c -0.0438,0.05284 -0.33127,0.236946 -0.44975,0.285236 c -0.0724,0.03088 -0.17743,0.08754 -0.2347,0.129717 c -0.0544,0.03932 -0.15328,0.0982 -0.21899,0.13131 c -0.452,0.219549 -0.90625,0.423358 -1.01798,0.458183 c -0.0747,0.02419 -0.17968,0.06176 -0.2347,0.08595 c -0.0544,0.02196 -0.16902,0.06796 -0.24987,0.0982 c -0.0837,0.0331 -0.19765,0.0791 -0.25212,0.103297 c -0.0551,0.02419 -0.15168,0.05507 -0.21728,0.06796 c -0.0635,0.01114 -0.26784,0.07019 -0.44977,0.131309 c -0.18417,0.06176 -0.39248,0.120646 -0.46041,0.134175 c -0.0702,0.01273 -0.1337,0.03708 -0.14484,0.05284 c -0.01,0.01735 -0.0589,0.0304 -0.10727,0.0304 c -0.0505,0 -0.22629,0.03088 -0.3908,0.06796 c -0.16677,0.03534 -0.4054,0.08149 -0.53286,0.101069 c -0.12908,0.01958 -0.27626,0.05889 -0.32679,0.08531 l -0.0944,0.04823 v 1.230792 l -0.0875,0.06796 c -0.1033,0.08308 -0.22404,0.08754 -0.36216,0.01273 z"
     style="fill:#000000;fill-opacity:1;fill-rule:nonzero;stroke:none;stroke-width:0.56149" />
  <text
     xml:space="preserve"
     style="font-style:italic;font-weight:300;font-size:7.90459px;font-family:'Segoe UI';-inkscape-font-specification:'Segoe UI Light Italic';fill:#e5b27f;stroke-width:0.126473;stroke-dasharray:0.126473, 0.758834"
     x="35.013111"
     y="77.088867"
     id="text1"><tspan
       sodipodi:role="line"
       id="tspan1"
       x="35.013111"
       y="77.088867"
       style="fill:#3a3a3a;fill-opacity:1;stroke-width:0.126473">Sample</tspan></text>
</svg>
